<?xml version="1.0" standalone="no"?>
<!DOCTYPE svg PUBLIC "-//W3C//DTD SVG 20010904//EN"
 "http://www.w3.org/TR/2001/REC-SVG-20010904/DTD/svg10.dtd">
<svg version="1.0" xmlns="http://www.w3.org/2000/svg"
 width="260.000000pt" height="260.000000pt" viewBox="0 0 260.000000 260.000000"
 preserveAspectRatio="xMidYMid meet">
<metadata>
Created by potrace 1.14, written by Peter Selinger 2001-2017
</metadata>
<g transform="translate(0.000000,260.000000) scale(0.100000,-0.100000)"
fill="#000000" stroke="none">
<path d="M1158 2595 c-2 -2 -25 -6 -53 -9 -117 -15 -329 -89 -430 -150 -120
-72 -218 -158 -308 -269 -55 -68 -161 -279 -178 -354 -7 -29 -15 -50 -19 -48
-9 5 -18 -43 -27 -134 -3 -36 -15 -80 -25 -98 -39 -65 -29 -182 20 -236 39
-43 110 -75 174 -76 24 -1 32 -11 67 -83 40 -84 104 -176 182 -262 46 -50 169
-146 192 -150 8 -1 25 -9 38 -17 13 -8 54 -28 91 -44 l67 -29 -61 -34 c-144
-80 -226 -161 -285 -282 -42 -85 -79 -216 -78 -275 l0 -40 763 -3 763 -2 -5
57 c-10 111 -59 253 -111 320 -68 86 -172 181 -245 221 -59 32 -70 42 -55 47
49 15 206 99 271 145 112 79 232 227 294 362 l29 65 50 6 c85 10 148 54 177
124 21 49 18 132 -7 178 -11 22 -22 54 -23 70 -19 172 -51 276 -134 435 -51
99 -90 150 -181 240 -100 99 -160 139 -316 214 -164 78 -292 107 -492 111 -78
2 -143 2 -145 0z"/>
</g>
</svg>
