<?xml version="1.0" standalone="no"?>
<!DOCTYPE svg PUBLIC "-//W3C//DTD SVG 20010904//EN"
 "http://www.w3.org/TR/2001/REC-SVG-20010904/DTD/svg10.dtd">
<svg version="1.0" xmlns="http://www.w3.org/2000/svg"
 width="512.000000pt" height="512.000000pt" viewBox="0 0 512.000000 512.000000"
 preserveAspectRatio="xMidYMid meet">
<metadata>
Created by potrace 1.14, written by Peter Selinger 2001-2017
</metadata>
<g transform="translate(0.000000,512.000000) scale(0.100000,-0.100000)"
fill="#000000" stroke="none">
<path d="M2405 4953 c-100 -11 -194 -28 -292 -53 -587 -151 -1060 -607 -1237
-1193 -19 -62 -37 -130 -40 -152 -4 -22 -11 -65 -16 -95 -6 -30 -13 -100 -16
-155 -3 -55 -6 -100 -7 -101 -1 -1 -74 -4 -162 -6 -144 -4 -165 -6 -210 -28
-63 -31 -123 -90 -155 -155 l-25 -50 0 -405 0 -405 24 -49 c31 -63 94 -126
156 -156 49 -24 56 -25 282 -25 218 0 233 1 259 21 15 11 37 33 48 48 20 27
21 40 24 529 2 276 0 522 -3 546 -5 33 -16 54 -42 80 l-35 35 6 106 c4 58 9
119 11 135 71 421 252 742 566 1007 201 169 446 284 734 344 154 32 462 25
640 -15 455 -103 849 -410 1067 -831 68 -131 132 -320 153 -450 4 -25 9 -54
11 -65 2 -11 7 -67 10 -124 l6 -103 -31 -32 c-17 -18 -36 -48 -41 -67 -6 -20
-10 -237 -10 -537 0 -544 0 -542 54 -592 l27 -25 -2 -222 c-1 -136 -7 -251
-16 -295 -82 -438 -427 -777 -858 -842 -49 -8 -111 -15 -136 -15 -41 -1 -48 2
-53 22 -7 30 -71 94 -116 115 -31 15 -80 17 -425 17 l-390 0 -42 -26 c-138
-83 -163 -272 -51 -377 73 -69 55 -67 466 -70 321 -3 380 -1 420 13 55 18 89
46 127 104 26 38 31 41 74 42 25 0 60 2 76 4 353 46 628 199 835 467 134 172
210 361 244 603 2 17 5 123 5 238 l1 207 145 0 c107 0 157 4 192 16 101 35
172 106 207 209 14 43 16 97 14 435 l-3 385 -25 50 c-31 62 -97 129 -158 157
-41 19 -68 23 -207 26 -88 2 -161 5 -162 6 0 0 -4 46 -8 101 -18 286 -95 538
-239 785 -45 77 -138 210 -176 251 -225 243 -415 379 -685 492 -63 26 -208 72
-260 82 -16 3 -66 13 -110 21 -73 14 -364 26 -440 17z"/>
<path d="M2430 3593 c-460 -64 -820 -413 -895 -865 -13 -80 -14 -277 -1 -343
45 -228 136 -402 288 -555 145 -145 319 -241 518 -287 93 -21 298 -25 395 -8
430 76 760 402 850 840 11 53 13 258 4 333 -47 370 -322 704 -684 831 -44 16
-96 31 -115 35 -19 3 -46 9 -60 12 -28 7 -262 12 -300 7z"/>
</g>
</svg>
